<?xml version="1.0" encoding="UTF-8"?><svg id="Layer_1" xmlns="http://www.w3.org/2000/svg" viewBox="0 0 100 100"><defs><style>.cls-1{fill:#bcbec0;stroke:#808285;}.cls-1,.cls-2{stroke-miterlimit:10;stroke-width:3px;}.cls-2{fill:#39b54a;stroke:#009444;}</style></defs><rect class="cls-2" x="61.24" y="56.8" width="16.27" height="34.7" rx="8.14" ry="8.14"/><rect class="cls-2" x="39.96" y="45.85" width="20.08" height="13.28"/><path class="cls-1" d="M45.73,7.44h8.55c14.96,0,27.1,12.14,27.1,27.1v12.75c0,3.98-3.23,7.21-7.21,7.21H25.84c-3.98,0-7.21-3.23-7.21-7.21v-12.75c0-14.96,12.14-27.1,27.1-27.1Z"/><rect class="cls-2" x="57.97" y="23.51" width="6.54" height="13.59" rx="3.27" ry="3.27"/><rect class="cls-2" x="69.38" y="23.51" width="6.54" height="13.59" rx="3.27" ry="3.27"/><path class="cls-1" d="M38.6,59.13h22.81c3.69,0,6.69,3,6.69,6.69v.17c0,6.4-5.2,11.6-11.6,11.6h-13c-6.4,0-11.6-5.2-11.6-11.6v-.17c0-3.69,3-6.69,6.69-6.69Z"/><rect class="cls-2" x="22.46" y="56.8" width="16.27" height="39.76" rx="8.14" ry="8.14"/></svg>