<?xml version="1.0" encoding="utf-8"?>
<!-- Generator: Adobe Illustrator 26.3.1, SVG Export Plug-In . SVG Version: 6.00 Build 0)  -->
<svg version="1.1" id="Layer_1" xmlns="http://www.w3.org/2000/svg" xmlns:xlink="http://www.w3.org/1999/xlink" x="0px" y="0px"
	 viewBox="0 0 100 100" style="enable-background:new 0 0 100 100;" xml:space="preserve">
<style type="text/css">
	.st0{fill:#F15A29;stroke:#9E4A25;stroke-width:3;stroke-miterlimit:10;}
	.st1{fill:#BCBEC0;stroke:#808285;stroke-width:3;stroke-miterlimit:10;}
</style>
<g>
	<path class="st0" d="M69.4,91.5L69.4,91.5c-4.5,0-8.1-3.7-8.1-8.1V64.9c0-4.5,3.7-8.1,8.1-8.1h0c4.5,0,8.1,3.7,8.1,8.1v18.4
		C77.5,87.8,73.9,91.5,69.4,91.5z"/>
</g>
<rect x="40" y="45.8" class="st0" width="20.1" height="13.3"/>
<path class="st1" d="M74.2,54.5H25.8c-4,0-7.2-3.2-7.2-7.2V34.5c0-14.9,12.2-27.1,27.1-27.1h8.5c14.9,0,27.1,12.2,27.1,27.1v12.7
	C81.4,51.3,78.1,54.5,74.2,54.5z"/>
<path class="st0" d="M61.2,37.1L61.2,37.1c-1.8,0-3.3-1.5-3.3-3.3v-7c0-1.8,1.5-3.3,3.3-3.3h0c1.8,0,3.3,1.5,3.3,3.3v7
	C64.5,35.6,63,37.1,61.2,37.1z"/>
<path class="st0" d="M72.6,37.1L72.6,37.1c-1.8,0-3.3-1.5-3.3-3.3v-7c0-1.8,1.5-3.3,3.3-3.3h0c1.8,0,3.3,1.5,3.3,3.3v7
	C75.9,35.6,74.4,37.1,72.6,37.1z"/>
<path class="st1" d="M61.4,59.1H38.6c-3.7,0-6.7,3-6.7,6.7V66c0,6.4,5.2,11.6,11.6,11.6h13c6.4,0,11.6-5.2,11.6-11.6v-0.2
	C68.1,62.1,65.1,59.1,61.4,59.1z"/>
<g>
	<path class="st0" d="M30.6,96.6L30.6,96.6c-4.5,0-8.1-3.7-8.1-8.1V64.9c0-4.5,3.7-8.1,8.1-8.1h0c4.5,0,8.1,3.7,8.1,8.1v23.5
		C38.7,92.9,35.1,96.6,30.6,96.6z"/>
</g>
</svg>
